<?xml version="1.0" standalone="no"?>
<!DOCTYPE svg PUBLIC "-//W3C//DTD SVG 20010904//EN"
 "http://www.w3.org/TR/2001/REC-SVG-20010904/DTD/svg10.dtd">
<svg version="1.0" xmlns="http://www.w3.org/2000/svg"
 width="500.000000pt" height="500.000000pt" viewBox="0 0 500.000000 500.000000"
 preserveAspectRatio="xMidYMid meet">
<metadata>
Created by potrace 1.16, written by Peter Selinger 2001-2019
</metadata>
<g transform="translate(0.000000,500.000000) scale(0.100000,-0.100000)"
fill="#000000" stroke="none">
<path d="M2318 4849 c-457 -31 -926 -217 -1298 -515 -47 -37 -137 -120 -200
-183 -579 -583 -808 -1440 -600 -2245 170 -659 625 -1217 1234 -1516 241 -117
469 -189 721 -225 165 -24 486 -24 650 0 964 141 1735 839 1964 1776 47 193
63 338 63 559 0 221 -16 366 -63 559 -140 573 -486 1069 -974 1395 -351 235
-737 367 -1155 396 -159 11 -173 11 -342 -1z m966 -2329 c379 -446 693 -810
698 -810 4 0 8 358 8 795 l0 795 60 0 60 0 0 -950 0 -950 -22 0 c-18 1 -182
189 -708 810 -377 445 -691 809 -697 810 -10 0 -13 -165 -13 -795 l0 -795 -60
0 -60 0 0 950 0 950 23 0 c17 0 176 -181 711 -810z m-1034 720 l0 -60 -340 0
-340 0 0 -875 0 -875 -60 0 -60 0 0 875 0 875 -345 0 -345 0 0 60 0 60 745 0
745 0 0 -60z"/>
</g>
</svg>
